# Blender 4.0.2
# www.blender.org
mtllib engel.mtl
o Cube
v -3.000000 -1.000000 0.160000
v -3.000000 1.000000 0.160000
v -3.000000 -1.000000 -0.160000
v -3.000000 1.000000 -0.160000
v 3.000000 -1.000000 0.160000
v 3.000000 1.000000 0.160000
v 3.000000 -1.000000 -0.160000
v 3.000000 1.000000 -0.160000
v -3.000000 -0.209795 -0.210613
v -3.000000 0.221468 0.114367
v -3.000000 -0.101468 -0.354367
v -3.000000 0.329795 -0.029387
v 3.000000 -0.209795 -0.210613
v 3.000000 0.221468 0.114367
v 3.000000 -0.101468 -0.354367
v 3.000000 0.329795 -0.029387
v -3.000000 -1.000000 0.360000
v -3.000000 -0.100000 0.360000
v -3.000000 -1.000000 -0.360000
v -3.000000 -0.100000 -0.360000
v 3.000000 -1.000000 0.360000
v 3.000000 -0.100000 0.360000
v 3.000000 -1.000000 -0.360000
v 3.000000 -0.100000 -0.360000
v -3.000000 -0.103414 0.368326
v -3.000000 0.327849 0.043346
v -3.000000 -0.247849 0.176654
v -3.000000 0.183414 -0.148326
v 3.000000 -0.103414 0.368326
v 3.000000 0.327849 0.043346
v 3.000000 -0.247849 0.176654
v 3.000000 0.183414 -0.148326
vn -1.0000 -0.0000 -0.0000
vn -0.0000 -0.0000 -1.0000
vn 1.0000 -0.0000 -0.0000
vn -0.0000 -0.0000 1.0000
vn -0.0000 -1.0000 -0.0000
vn -0.0000 1.0000 -0.0000
vn -0.0000 0.6018 -0.7986
vn -0.0000 -0.6018 0.7986
vn -0.0000 -0.7986 -0.6018
vn -0.0000 0.7986 0.6018
vn -0.0000 -0.6018 -0.7986
vn -0.0000 0.6018 0.7986
vn -0.0000 -0.7986 0.6018
vn -0.0000 0.7986 -0.6018
vt 0.375000 0.000000
vt 0.625000 0.000000
vt 0.625000 0.250000
vt 0.375000 0.250000
vt 0.625000 0.500000
vt 0.375000 0.500000
vt 0.625000 0.750000
vt 0.375000 0.750000
vt 0.625000 1.000000
vt 0.375000 1.000000
vt 0.125000 0.500000
vt 0.125000 0.750000
vt 0.875000 0.500000
vt 0.875000 0.750000
s 0
usemtl Material.001
f 1/1/1 2/2/1 4/3/1 3/4/1
f 3/4/2 4/3/2 8/5/2 7/6/2
f 7/6/3 8/5/3 6/7/3 5/8/3
f 5/8/4 6/7/4 2/9/4 1/10/4
f 3/11/5 7/6/5 5/8/5 1/12/5
f 8/5/6 4/13/6 2/14/6 6/7/6
f 9/1/1 10/2/1 12/3/1 11/4/1
f 11/4/7 12/3/7 16/5/7 15/6/7
f 15/6/3 16/5/3 14/7/3 13/8/3
f 13/8/8 14/7/8 10/9/8 9/10/8
f 11/11/9 15/6/9 13/8/9 9/12/9
f 16/5/10 12/13/10 10/14/10 14/7/10
f 17/1/1 18/2/1 20/3/1 19/4/1
f 19/4/2 20/3/2 24/5/2 23/6/2
f 23/6/3 24/5/3 22/7/3 21/8/3
f 21/8/4 22/7/4 18/9/4 17/10/4
f 19/11/5 23/6/5 21/8/5 17/12/5
f 24/5/6 20/13/6 18/14/6 22/7/6
f 25/1/1 26/2/1 28/3/1 27/4/1
f 27/4/11 28/3/11 32/5/11 31/6/11
f 31/6/3 32/5/3 30/7/3 29/8/3
f 29/8/12 30/7/12 26/9/12 25/10/12
f 27/11/13 31/6/13 29/8/13 25/12/13
f 32/5/14 28/13/14 26/14/14 30/7/14
